<?xml version="1.0" encoding="utf-8"?>
<!-- Generator: Adobe Illustrator 16.0.0, SVG Export Plug-In . SVG Version: 6.00 Build 0)  -->
<!DOCTYPE svg PUBLIC "-//W3C//DTD SVG 1.1//EN" "http://www.w3.org/Graphics/SVG/1.1/DTD/svg11.dtd">
<svg version="1.1" id="Layer_1" xmlns="http://www.w3.org/2000/svg" xmlns:xlink="http://www.w3.org/1999/xlink" x="0px" y="0px"
	 width="30.525px" height="25px" viewBox="0 0 30.525 25" enable-background="new 0 0 30.525 25" xml:space="preserve">
<path fill="#707B8F" d="M27.117,11.376H4.685l8.59-8.182c0.449-0.428,0.467-1.14,0.039-1.59c-0.428-0.449-1.14-0.467-1.59-0.039
	l-9.81,9.344c-0.424,0.425-0.659,0.989-0.659,1.59c0,0.599,0.234,1.165,0.679,1.609l9.791,9.325c0.217,0.207,0.497,0.31,0.775,0.31
	c0.297,0,0.593-0.117,0.814-0.349c0.428-0.45,0.411-1.161-0.039-1.59l-8.625-8.182h22.468c0.619,0,1.123-0.503,1.123-1.124
	C28.24,11.879,27.736,11.376,27.117,11.376L27.117,11.376z"/>
</svg>
